<svg xmlns="http://www.w3.org/2000/svg" width="32" height="32" viewBox="0 0 750 750">
  <style>
    path {
      fill: black;
    }

    @media (prefers-color-scheme: dark) {
      path {
        fill: white;
      }
    }
  </style>
  <!-- Flattened silhouette version (filled star, no cutout) -->
  <path d="M587.54 369.5c.03 10.91-5.43 16.63-16.87 17.19-24.14 1.2-47.66 5.43-70.69 12.9-27.43 8.89-47.33 25.72-58.1 52.78-8.4 21.11-16.5 42.36-25.41 63.25-5.47 12.82-11.6 25.47-18.67 37.47-3.64 6.18-9.33 11.69-15.26 15.86-9.2 6.48-19.12 3.51-23.72-6.83-2.6-5.85-3.57-12.53-4.64-18.94-2.6-15.51-4.36-31.17-7.3-46.6-10.71-56.23-45.39-90.27-99.85-104.33-20.21-5.22-41.25-7.24-61.9-10.79-4.3-.74-8.56-1.7-12.8-2.74-6.39-1.57-9.44-6.09-9.84-12.33-.4-6.2 2.05-11.2 7.82-13.94 3.13-1.49 6.52-2.53 9.87-3.48 71.73-20.5 129.09-60.82 170.33-123.36 3.13-4.74 5.97-9.67 8.88-14.56 3.12-5.25 6.25-10.14 3.45-17.08-1.21-3.01.19-7.86 1.89-11.08 3.39-6.41 9.22-7.06 13.65-1.29 6.89 9 18.09 15.47 17.11 29.46-.23 3.33 3.19 7.02 5.22 10.37 31.3 51.75 74.28 90.17 130.41 113.34 13.71 5.66 27.74 10.55 41.7 15.59 10 3.61 14.69 9.46 14.72 19.16Z"/>
</svg>
